<svg xmlns="http://www.w3.org/2000/svg" xmlns:xlink="http://www.w3.org/1999/xlink" viewBox="0 0 229.05 395.48"><defs><style>.cls-1{fill:#666766;}.cls-2{fill:url(#radial-gradient);}.cls-3{fill:#e6e6e6;}.cls-12,.cls-14,.cls-15,.cls-16,.cls-29,.cls-30,.cls-4,.cls-7,.cls-8{fill:none;}.cls-4,.cls-8{stroke:#999;}.cls-12,.cls-14,.cls-30,.cls-4,.cls-7,.cls-8{stroke-miterlimit:10;}.cls-4{stroke-width:1.01px;}.cls-5{fill:#b3b4b4;}.cls-6{fill:gray;}.cls-7{stroke:#b3b4b4;}.cls-12,.cls-14,.cls-30,.cls-7,.cls-8{stroke-width:0.51px;}.cls-13,.cls-9{fill:#999;}.cls-9{opacity:0.19;}.cls-24,.cls-25,.cls-26,.cls-27,.cls-9{isolation:isolate;}.cls-10{fill:url(#radial-gradient-2);}.cls-11{opacity:0.39;}.cls-12{stroke:#000;}.cls-14,.cls-15,.cls-16{stroke:#666766;}.cls-15,.cls-16{stroke-linejoin:round;stroke-width:2.02px;}.cls-16{stroke-dasharray:0.5 0.5;}.cls-17{fill:url(#linear-gradient);}.cls-18{fill:url(#linear-gradient-2);}.cls-19{fill:url(#linear-gradient-3);}.cls-20{fill:url(#linear-gradient-4);}.cls-21{fill:url(#linear-gradient-5);}.cls-22{fill:url(#linear-gradient-6);}.cls-23{fill:url(#linear-gradient-7);}.cls-24,.cls-25,.cls-26,.cls-27{opacity:0.85;}.cls-24{fill:url(#linear-gradient-8);}.cls-25{fill:url(#linear-gradient-9);}.cls-26{fill:url(#linear-gradient-10);}.cls-27{fill:url(#linear-gradient-11);}.cls-28{fill:url(#linear-gradient-12);}.cls-30{stroke:url(#radial-gradient-3);}.cls-31{fill:url(#radial-gradient-4);}.cls-32{opacity:0.75;}.cls-33{fill:#e0e0de;}</style><radialGradient id="radial-gradient" cx="113.55" cy="668.87" r="10.24" gradientTransform="matrix(1, 0, 0, -1, 0, 845.55)" gradientUnits="userSpaceOnUse"><stop offset="0.01" stop-color="#aeb0b7"/><stop offset="0.07" stop-color="#a8aaaf"/><stop offset="0.21" stop-color="#98989b"/><stop offset="0.35" stop-color="gray"/><stop offset="0.67" stop-color="gray"/><stop offset="1" stop-color="#4d4d4e"/></radialGradient><radialGradient id="radial-gradient-2" cx="112.87" cy="616.87" r="8.33" gradientTransform="matrix(1, 0, 0, -1, 0, 845.55)" gradientUnits="userSpaceOnUse"><stop offset="0.01" stop-color="#aeb0b7"/><stop offset="0.27" stop-color="#aaabab"/><stop offset="0.35" stop-color="#a9a9a6"/><stop offset="0.45" stop-color="#b0b0ae"/><stop offset="0.64" stop-color="#c0c0be"/><stop offset="0.78" stop-color="#cccccb"/><stop offset="0.79" stop-color="#c1c2c3"/><stop offset="0.82" stop-color="#a9aeb2"/><stop offset="0.85" stop-color="#838c92"/><stop offset="1" stop-color="#657076"/></radialGradient><linearGradient id="linear-gradient" x1="114.66" y1="508.49" x2="113.96" y2="520.98" gradientTransform="matrix(1, 0, 0, -1, 0, 845.55)" gradientUnits="userSpaceOnUse"><stop offset="0.01" stop-color="#85878d"/><stop offset="0.53" stop-color="#979899"/><stop offset="1" stop-color="#5d5c62"/></linearGradient><linearGradient id="linear-gradient-2" x1="115.1" y1="495.67" x2="114.55" y2="506.53" xlink:href="#linear-gradient"/><linearGradient id="linear-gradient-3" x1="115.32" y1="481.59" x2="114.87" y2="493.46" xlink:href="#linear-gradient"/><linearGradient id="linear-gradient-4" x1="63.5" y1="494.18" x2="165.06" y2="494.18" gradientTransform="matrix(1, 0, 0, -1, 0, 845.55)" gradientUnits="userSpaceOnUse"><stop offset="0.01" stop-color="#bbbcbe"/><stop offset="0.29" stop-color="#989ca0"/><stop offset="0.65" stop-color="#bfbec2"/><stop offset="0.87" stop-color="#9ea0a4"/><stop offset="1" stop-color="#a7a9ac"/><stop offset="1" stop-color="#c3c6ca"/></linearGradient><linearGradient id="linear-gradient-5" x1="68.01" y1="475.61" x2="164.15" y2="475.61" xlink:href="#linear-gradient-4"/><linearGradient id="linear-gradient-6" x1="63.88" y1="508.48" x2="165.22" y2="508.48" xlink:href="#linear-gradient-4"/><linearGradient id="linear-gradient-7" x1="62.72" y1="535.43" x2="166.43" y2="535.43" xlink:href="#linear-gradient-4"/><linearGradient id="linear-gradient-8" x1="63.3" y1="494.18" x2="164.89" y2="494.18" gradientTransform="matrix(1, 0, 0, -1, 0, 845.55)" gradientUnits="userSpaceOnUse"><stop offset="0.01" stop-opacity="0.4"/><stop offset="0.24" stop-color="#706d6e" stop-opacity="0.4"/><stop offset="0.36" stop-color="#bfbec2" stop-opacity="0.4"/><stop offset="0.53" stop-color="#9ea0a4" stop-opacity="0.4"/><stop offset="0.69" stop-color="#c3c6ca"/><stop offset="1" stop-opacity="0.1"/></linearGradient><linearGradient id="linear-gradient-9" x1="67.92" y1="475.61" x2="164.06" y2="475.61" xlink:href="#linear-gradient-8"/><linearGradient id="linear-gradient-10" x1="63.76" y1="508.48" x2="165.02" y2="508.48" xlink:href="#linear-gradient-8"/><linearGradient id="linear-gradient-11" x1="62.57" y1="535.43" x2="166.28" y2="535.43" xlink:href="#linear-gradient-8"/><linearGradient id="linear-gradient-12" x1="114.79" y1="522.64" x2="113.97" y2="535.95" xlink:href="#linear-gradient"/><radialGradient id="radial-gradient-3" cx="113.61" cy="547.89" r="34.94" gradientTransform="matrix(1, 0, 0, -1, 0, 845.55)" gradientUnits="userSpaceOnUse"><stop offset="0.01" stop-color="#aeb0b7"/><stop offset="0.27" stop-color="#aaabab"/><stop offset="0.35" stop-color="#a9a9a6"/><stop offset="0.52" stop-color="#969b9d"/><stop offset="0.67" stop-color="#838c92"/><stop offset="1" stop-color="#657076"/></radialGradient><radialGradient id="radial-gradient-4" cx="116.08" cy="726.62" r="167.43" gradientTransform="matrix(1, 0, 0, -1, 0, 845.55)" gradientUnits="userSpaceOnUse"><stop offset="0" stop-color="#fff" stop-opacity="0.3"/><stop offset="0.51" stop-color="#fff" stop-opacity="0.3"/><stop offset="1" stop-color="#fff" stop-opacity="0.8"/></radialGradient></defs><title>off</title><g id="Layer_2" data-name="Layer 2"><g id="Layer_1-2" data-name="Layer 1"><path d="M95.42,240.48a1.3,1.3,0,0,1-1.3,1.1H94c-.7-.1-.1-.9,0-1.6,3.5-31.3-1-40-1-40.1l-28.2-65.4,1.1-.5-3.7-7.9-.9.4-1.8-4.2a1.3,1.3,0,1,1,2.4-1l33.4,77.6C95.52,199.28,99,208.18,95.42,240.48Z"/><path d="M166.32,122.38l-1.8,4.2-.9-.4-3.7,7.9,1.1.5L132.82,200c0,.1-4.1,8.7-.6,40,.1.7.3,1.6-.4,1.6h-.1a1.38,1.38,0,0,1-1.3-1.1c-3.6-32.2-.1-41.2.1-41.5l33.4-77.6a1.43,1.43,0,0,1,1.7-.7A1.25,1.25,0,0,1,166.32,122.38Z"/><path class="cls-1" d="M96.82,235.68l11-3.4s2.6,3.1,4.6,2.7a10.81,10.81,0,0,0,4.8-2l.8-.8,10.7,3.5v5.2l-31.9.5v-5.7Z"/><path class="cls-1" d="M96.82,235.68l11-3.4s2.6,3.1,4.6,2.7a10.81,10.81,0,0,0,4.8-2l.8-.8,10.7,3.5v5.2l-31.9.5v-5.7Z"/><path class="cls-2" d="M123.82,166.28h-5.3c-2.7,0-2.7-.3-5.3-.3h-5.3c-2.6,0-2.7-.3-5.3-.3a3.6,3.6,0,0,0-3.4,3.5h.3a3.16,3.16,0,0,0,3.1,3.3c2.7,0,2.7-.2,5.3-.2s2.7.3,5.3.3,2.7-.4,5.3-.4,2.7.5,5.3.5a3.6,3.6,0,0,0,3.4-3.5H127A3,3,0,0,0,123.82,166.28Z"/><rect class="cls-3" x="105.52" y="170.68" width="15.3" height="39.1"/><rect class="cls-4" x="105.52" y="170.68" width="15.3" height="39.1"/><rect class="cls-5" x="107.82" y="170.68" width="2.6" height="39.1"/><rect class="cls-6" x="115.62" y="170.68" width="2.6" height="39.1"/><line class="cls-7" x1="109.12" y1="170.68" x2="109.12" y2="209.78"/><line class="cls-8" x1="116.92" y1="170.68" x2="116.92" y2="209.78"/><path class="cls-3" d="M132.12,212.18c-5.5-2-7.7.8-11.3-4.3a3.25,3.25,0,0,0-.9-1.1c-.1-.1-.2-.2-.3-.2a4,4,0,0,0-1.3-.7c-.2-.1-.4-.1-.6-.2a8.72,8.72,0,0,0-3-.4,9.15,9.15,0,0,0-1.6.1,9.15,9.15,0,0,0-1.6-.1,12.1,12.1,0,0,0-3,.4c-.2.1-.4.1-.6.2a7.62,7.62,0,0,0-1.3.7c-.1.1-.2.2-.3.2a3.25,3.25,0,0,0-.9,1.1c-3.7,5.1-5.9,2.3-11.4,4.3s-1.8,14.3-1.8,14.3L94,240l-1.8,8.6v46.9l20.9,2.4,20.9-2.4v-46.9l-1.8-8.6,1.8-13.5C133.92,226.48,137.62,214.18,132.12,212.18Zm-23.8,19.3-.7-2.8.6-2.8,2-2,2.8-.6,2.8.7,2.1,1.9.6,2.8-.8,2.7-1.9,2.1-2.8.7-2.7-.8Z"/><path class="cls-1" d="M132.12,212.18c-5.5-2-7.7.8-11.3-4.3a3.25,3.25,0,0,0-.9-1.1c-.1-.1-.2-.2-.3-.2a4,4,0,0,0-1.3-.7c-.2-.1-.4-.1-.6-.2a8.72,8.72,0,0,0-3-.4,9.15,9.15,0,0,0-1.6.1,9.15,9.15,0,0,0-1.6-.1,12.1,12.1,0,0,0-3,.4c-.2.1-.4.1-.6.2a7.62,7.62,0,0,0-1.3.7c-.1.1-.2.2-.3.2a3.25,3.25,0,0,0-.9,1.1c-3.7,5.1-5.9,2.3-11.4,4.3s-1.8,14.3-1.8,14.3L94,240l-1.8,8.6v46.9l20.9,2.4,20.9-2.4v-46.9l-1.8-8.6,1.8-13.5C133.92,226.48,137.62,214.18,132.12,212.18Zm-2.5,13-.1.3-.1.3-1.8,13.4-.1.8.2.79,1.7,8.1v42.4l-16.3,1.9-16.3-1.9v-42.4l1.7-8.1.2-.79-.1-.8-1.8-13.4-.1-.3-.1-.3c-1-3.3-1.3-7.5-.7-8.8a10.77,10.77,0,0,1,3.4-.5c2.6-.1,6.2-.3,9.8-5.3l.3-.4a4.59,4.59,0,0,1,2.2-.4,4.48,4.48,0,0,1,1.1.1l.5.1.5-.1c.4,0,.8-.1,1.1-.1a5.44,5.44,0,0,1,2.2.4l.3.4c3.6,5,7.2,5.2,9.8,5.3a14.71,14.71,0,0,1,3.4.5C130.92,217.68,130.62,221.88,129.62,225.18Z"/><path class="cls-9" d="M132.22,212.18c-5.5-2-7.7.8-11.3-4.3a3.25,3.25,0,0,0-.9-1.1c-.1-.1-.2-.2-.3-.2a4,4,0,0,0-1.3-.7c-.2-.1-.4-.1-.6-.2a8.72,8.72,0,0,0-3-.4,9.15,9.15,0,0,0-1.6.1,9.15,9.15,0,0,0-1.6-.1,12.1,12.1,0,0,0-3,.4c-.2.1-.4.1-.6.2a7.62,7.62,0,0,0-1.3.7c-.1.1-.2.2-.3.2a3.25,3.25,0,0,0-.9,1.1c-3.7,5.1-5.9,2.3-11.4,4.3s-1.8,14.3-1.8,14.3l1.8,13.5-1.8,8.6v46.9l20.9,2.4,20.9-2.4v-46.9l-1.8-8.6,1.8-13.5C134,226.48,137.72,214.18,132.22,212.18Zm-2.5,13-.1.3-.1.3-1.8,13.4-.1.8.2.79,1.7,8.1v42.4l-16.3,1.9-16.3-1.9v-42.4l1.7-8.1.2-.79-.1-.8-1.8-13.4-.1-.3-.1-.3c-1-3.3-1.3-7.5-.7-8.8a10.77,10.77,0,0,1,3.4-.5c2.6-.1,6.2-.3,9.8-5.3l.3-.4a4.59,4.59,0,0,1,2.2-.4,4.48,4.48,0,0,1,1.1.1l.5.1.5-.1c.4,0,.8-.1,1.1-.1a5.44,5.44,0,0,1,2.2.4l.3.4c3.6,5,7.2,5.2,9.8,5.3a14.71,14.71,0,0,1,3.4.5C131,217.68,130.62,221.88,129.72,225.18Z"/><path class="cls-10" d="M119,225.28a6.85,6.85,0,0,0-6-3.5c-2,.4-4-.1-5.4,1.6-2.1,2.5-2.1,4.3-.9,8.8.3,1.1,2.9,2.8,4.3,3.2a6.84,6.84,0,0,0,7.5-2.6,6.61,6.61,0,0,0,1.4-3.9A5.88,5.88,0,0,0,119,225.28Zm-.4,3.4h0l-.8,2.7-1.9,2.1-2.8.7-2.7-.8-2-2-.7-2.8.6-2.8,2-2,2.8-.6,2.8.7,2.1,1.9.6,2.9Z"/><path class="cls-1" d="M102.22,172.78c1.9-.1,3.7-.2,5.6-.2h0c1.2.2,2.4.3,3.7.4.6,0,1.2.1,1.8.1h.4a.76.76,0,0,0,.4-.1,2.77,2.77,0,0,1,.9-.1,30.4,30.4,0,0,1,7.4.3c-1.2,0-2.5.1-3.7,0s-2.5.1-3.7.2a2.92,2.92,0,0,0-.9.2,4.33,4.33,0,0,1-.5.1h-.5a12.1,12.1,0,0,1-1.9-.1c-1.2-.1-2.5-.3-3.7-.5h0Z"/><g class="cls-11"><polygon class="cls-1" points="118.62 228.68 118.62 297.27 107.62 297.27 107.62 228.68 108.32 231.47 110.42 233.47 113.12 234.28 115.82 233.57 117.82 231.47 118.62 228.68"/><polygon class="cls-12" points="118.62 228.68 118.62 297.27 107.62 297.27 107.62 228.68 108.32 231.47 110.42 233.47 113.12 234.28 115.82 233.57 117.82 231.47 118.62 228.68"/></g><g class="cls-11"><polygon class="cls-1" points="118.62 228.68 118.62 297.27 107.62 297.27 107.62 228.68 108.32 231.47 110.42 233.47 113.12 234.28 115.82 233.57 117.82 231.47 118.62 228.68"/><polygon class="cls-12" points="118.62 228.68 118.62 297.27 107.62 297.27 107.62 228.68 108.32 231.47 110.42 233.47 113.12 234.28 115.82 233.57 117.82 231.47 118.62 228.68"/></g><rect class="cls-13" x="109.12" y="241.38" width="1.3" height="53.9"/><rect class="cls-13" x="114.92" y="241.38" width="3.3" height="53.9"/><path class="cls-14" d="M103,168.18c-4.6-15.4-4.4-15.5-9-31s-5.7-15.1-10.3-30.6"/><path class="cls-14" d="M121.22,168.28c4.6-15.4,4.5-15.5,9.1-30.9s3.9-15.7,8.5-31.1"/><ellipse class="cls-14" cx="86.62" cy="111.09" rx="1.8" ry="3.4" transform="translate(-30.65 33.04) rotate(-18.41)"/><ellipse class="cls-14" cx="135.1" cy="113.75" rx="3.4" ry="1.8" transform="translate(-10.69 213.44) rotate(-74.46)"/><line class="cls-15" x1="60.62" y1="121.78" x2="60.82" y2="121.68"/><polyline class="cls-16" points="61.12 121.08 65.02 120.28 68.72 118.88 72.22 116.88 75.82 115.28 79.32 113.47 83.02 111.97 86.62 110.38 90.72 110.67 94.72 110.58 98.82 110.88 102.82 111.28 106.92 111.67 110.92 111.78 114.92 111.78 119.02 111.78 123.02 112.38 127.02 112.88 131.12 113.08 135.22 112.88 138.72 114.38 142.32 115.58 146.12 116.38 149.72 117.47 153.42 118.47 157.02 119.67 160.72 120.88 164.22 122.28"/><line class="cls-15" x1="164.52" y1="122.18" x2="164.82" y2="122.18"/><polygon class="cls-1" points="60.52 121.58 64.22 120.08 67.82 118.17 71.52 116.47 75.52 115.58 78.92 113.08 82.92 112.08 86.52 110.17 86.72 110.67 86.72 110.08 90.72 109.97 94.82 110.17 98.82 110.97 102.82 111.28 106.92 110.97 110.92 111.88 114.92 112.17 119.02 112.17 123.02 112.47 127.02 112.88 131.12 112.28 135.22 112.47 135.22 112.97 135.32 112.67 138.92 113.97 142.72 114.78 146.42 115.88 150.12 117.08 153.82 118.17 157.32 120.08 161.12 120.97 164.72 122.28 164.82 122.17 161.12 121.17 157.42 119.88 153.52 119.38 149.82 118.28 146.12 116.97 142.42 115.88 138.82 114.47 135.02 113.67 135.12 113.08 131.12 112.88 127.12 112.47 123.02 112.97 118.92 112.88 114.92 112.88 110.92 112.28 106.82 111.97 102.82 111.78 98.82 111.67 94.72 111.88 90.72 110.97 86.62 111.17 86.72 110.78 83.02 112.28 79.42 114.17 75.72 115.97 72.02 117.58 68.22 119.08 64.32 120.17 60.52 121.67 60.52 121.58"/><polygon points="96.92 291.38 96.42 248.97 96.42 248.97 96.42 248.97 98.12 240.78 99.12 240.97 97.32 249.07 97.32 248.97 96.92 291.38"/><polygon points="129.62 291.38 129.12 248.97 129.22 249.07 127.32 240.97 128.32 240.78 130.02 248.97 130.02 248.97 130.02 248.97 129.62 291.38"/><path d="M84.62,380l10.1,10.5s.8,3.1,2.6,3.7,13.1,2.6,34.5,0c0,0,1.9-.8,1.7-3.7l11.2-10.3a7.26,7.26,0,0,1,.8-2.1C146.32,376.38,84.62,380,84.62,380Z"/><path class="cls-17" d="M66.82,336.28a6.5,6.5,0,0,0-1-5.8l96-6c-1.3,1.1-1.4,1.6-.3,4a3.13,3.13,0,0,0,1.5,1.9l-97.1,6.7A9.4,9.4,0,0,1,66.82,336.28Z"/><path class="cls-18" d="M66.92,343.88l94.1-4.8c-1.1,1.3-1,2.7.9,4.8A11.41,11.41,0,0,0,163,345l-96.1,4.9C69.52,347.88,66.92,343.88,66.92,343.88Z"/><path class="cls-19" d="M164,359.88s-21.1,6.1-95.9,3.4c0,0,1.1-4.4-1.9-5.7,34.7-2,67-3.9,95.7-5.5-2.3,2.6-.8,4.4-.8,4.4s.8,2.4,2.4,2.2C163.42,358.78,163.82,359.28,164,359.88Z"/><path class="cls-20" d="M162.92,351.18a4.71,4.71,0,0,0-1,1c-27,3.3-59.9,4.8-95.7,5.5-3.1-1.3-4.1-5.5-.1-7.2a3.6,3.6,0,0,0,.9-.5h0l96.1-4.9C165.22,347.28,166.22,348.48,162.92,351.18Z"/><path class="cls-21" d="M162.92,362.88l-15.1,14.2a11.13,11.13,0,0,1-4,.8l-59.1,2c-1.4.5-1.8,0-1.8,0s-10.2-9.8-12.7-11.9a5.85,5.85,0,0,1-2.2-4.8c74.8,2.8,95.9-3.4,95.9-3.4A2.36,2.36,0,0,1,162.92,362.88Z"/><path class="cls-22" d="M65.92,337.08l97.1-6.7a3.34,3.34,0,0,0,1.2.5s2.6,3.9-.6,6A11.82,11.82,0,0,0,161,339l-94.1,4.8C61.82,341.68,64.32,338.58,65.92,337.08Z"/><path class="cls-23" d="M162.82,296.18c.3,2.2.3,3.1.2,3.2,1.1,2,4.7,8.7,1.6,9.2a2.69,2.69,0,0,0-1.8,1h0c-1.5,1.7-1.1,5-1.1,5a6.71,6.71,0,0,0,2.4,2.8,3.24,3.24,0,0,1,0,5.3q-1.35,1.2-2.1,1.8l-96,6c-.2-.3-.5-.6-.8-1-2.7-2.9-1.5-5.5.1-6.7a2.51,2.51,0,0,1,.7-.4c1.5-.6,2.3-5.2,1.3-6.4-.5-.6-1.4-.9-2-1.6a5.1,5.1,0,0,1-1.2-2,3,3,0,0,1,0-2.1l1.2-12.7-.8-1.9c.7-4-1.6-5.9-1.6-5.9l20.5.4,83.2-.4s.2,1.5-1.1,1.8C164.12,292.08,162.22,291,162.82,296.18Z"/><path class="cls-24" d="M162.72,351.18a4.71,4.71,0,0,0-1,1c-27,3.3-59.9,4.8-95.7,5.5-3.1-1.3-4.1-5.5-.1-7.2a3.6,3.6,0,0,0,.9-.5h0l96.1-4.9C165.12,347.28,166,348.48,162.72,351.18Z"/><path class="cls-25" d="M162.72,362.88l-15.1,14.2a11.13,11.13,0,0,1-4,.8l-59.1,2c-1.4.5-1.8,0-1.8,0S72.52,370.08,70,368a5.85,5.85,0,0,1-2.2-4.8c74.8,2.8,95.9-3.4,95.9-3.4A2.36,2.36,0,0,1,162.72,362.88Z"/><path class="cls-26" d="M65.72,337.08l97.1-6.7a3.34,3.34,0,0,0,1.2.5s2.6,3.9-.6,6a11.82,11.82,0,0,0-2.6,2.1l-94.1,4.8C61.72,341.68,64.22,338.58,65.72,337.08Z"/><path class="cls-27" d="M162.62,296.18c.3,2.2.3,3.1.2,3.2,1.1,2,4.7,8.7,1.6,9.2a2.69,2.69,0,0,0-1.8,1h0c-1.5,1.7-1.1,5-1.1,5a6.71,6.71,0,0,0,2.4,2.8,3.24,3.24,0,0,1,0,5.3q-1.35,1.2-2.1,1.8l-96,6c-.2-.3-.5-.6-.8-1-2.7-2.9-1.5-5.5.1-6.7a2.51,2.51,0,0,1,.7-.4c1.5-.6,2.3-5.2,1.3-6.4-.5-.6-1.4-.9-2-1.6a5.1,5.1,0,0,1-1.2-2,3,3,0,0,1,0-2.1l1.2-12.7-.8-1.9c.7-4-1.6-5.9-1.6-5.9l20.5.4,83.2-.4s.2,1.5-1.1,1.8C163.92,292.08,162,291,162.62,296.18Z"/><path class="cls-28" d="M164,317.48,65.22,323h0a2.51,2.51,0,0,1,.7-.4c1.5-.6,2.3-5.2,1.3-6.4-.5-.6-1.4-.9-2-1.6l97.5-5h0c-1.5,1.7-1.1,5-1.1,5A6.75,6.75,0,0,0,164,317.48Z"/><line class="cls-29" x1="163.42" y1="324.48" x2="161.82" y2="324.58"/><line class="cls-29" x1="65.82" y1="330.58" x2="64.72" y2="330.58"/><line class="cls-29" x1="165.12" y1="330.28" x2="163.02" y2="330.38"/><line class="cls-29" x1="65.92" y1="337.08" x2="64.72" y2="337.18"/><path class="cls-30" d="M64.32,295.88s28.9,3.2,98.6,3.5"/><path class="cls-31" d="M114.52,290.38h23.2c9,0,26.1,3.5,31.5-5.5,1.8-2.9,2.5-6.3,3.3-9.6,3.6-15.9,6.6-31,13.5-45.7,5-10.5,10.1-21,15.1-31.5,7.2-15.1,14.5-30.2,21.7-45.3,0,0,21.8-53.6-16.2-106.8-43.9-61.4-140.5-61.2-184.2,0-38,53.1-16.2,106.8-16.2,106.8,7,14.7,14.1,29.4,21.1,44.1,9.3,19.4,19.7,38.5,25,59.5,2.3,9.1,2.7,30.1,13.7,34.1C66,290.38,114.52,290.38,114.52,290.38Z"/><g class="cls-32"><path class="cls-33" d="M114.52,290.38h23.2c9,0,26.1,3.5,31.5-5.5,1.8-2.9,2.5-6.3,3.3-9.6,3.6-15.9,6.6-31,13.5-45.7,5-10.5,10.1-21,15.1-31.5,7.2-15.1,14.5-30.2,21.7-45.3,0,0,21.8-53.6-16.2-106.8-43.9-61.4-140.5-61.2-184.2,0-38,53.1-16.2,106.8-16.2,106.8,7,14.7,14.1,29.4,21.1,44.1,9.3,19.4,19.7,38.5,25,59.5,2.3,9.1,2.7,30.1,13.7,34.1C66,290.38,114.52,290.38,114.52,290.38Z"/></g></g></g></svg>